<?xml version="1.0" encoding="UTF-8"?>
<!DOCTYPE svg PUBLIC "-//W3C//DTD SVG 1.1//EN" "http://www.w3.org/Graphics/SVG/1.1/DTD/svg11.dtd">
<!-- Creator: CorelDRAW 2017 -->
<svg xmlns="http://www.w3.org/2000/svg" xml:space="preserve" width="200mm" height="57mm" version="1.1" style="shape-rendering:geometricPrecision; text-rendering:geometricPrecision; image-rendering:optimizeQuality; fill-rule:evenodd; clip-rule:evenodd"
viewBox="0 0 20000 5700"
 xmlns:xlink="http://www.w3.org/1999/xlink">
 <defs>
  <style type="text/css">
   <![CDATA[
    .fil1 {fill:#2565A2}
    .fil0 {fill:#878889;fill-rule:nonzero}
   ]]>
  </style>
 </defs>
 <g id="Layer_x0020_1">
  <metadata id="CorelCorpID_0Corel-Layer"/>
  <g id="_1137049616">
   <path class="fil0" d="M0.03 5423.39l407.77 0c257.34,0 357.61,-40.1 357.61,-260.68l0 -142.06c0,-162.1 -70.18,-242.3 -212.24,-248.98 142.06,-25.09 202.2,-90.26 202.2,-228.95l0 -110.29c0,-220.61 -103.62,-260.71 -360.96,-260.71l-394.38 0 0 1251.67zm292.45 -546.46l88.57 0c66.85,0 91.91,16.73 91.91,90.26l0 148.71c0,73.52 -25.06,86.91 -91.91,86.91l-88.57 0 0 -325.88zm0 -484.6l81.89 0c66.82,0 88.57,15.01 88.57,88.54l0 113.66c0,75.18 -21.75,90.22 -88.57,90.22l-81.89 0 0 -292.42zm1002.66 -235.65c-310.83,0 -379.33,68.53 -379.33,350.93l0 579.89c0,290.77 71.84,350.93 379.33,350.93 312.49,0 377.66,-51.8 377.66,-350.93l0 -579.89c0,-282.4 -71.84,-350.93 -377.66,-350.93zm0 220.61c61.83,0 76.87,20.03 76.87,90.22l0 661.77c0,70.19 -15.04,88.57 -76.87,88.57 -61.82,0 -78.55,-18.38 -78.55,-88.57l0 -661.77c0,-71.84 16.73,-90.22 78.55,-90.22zm997.64 15.04l0 810.48 -193.83 0c53.46,-125.33 71.84,-192.18 71.84,-416.1l0 -394.38 121.99 0zm-386.01 -220.61l0 578.23c0,245.64 -18.38,315.83 -75.21,452.86l-63.48 0 0 469.59 264.02 0 0 -249.01 369.32 0 0 249.01 264.02 0 0 -469.59 -80.2 0 0 -1031.09 -678.47 0zm1233.29 -15.04c-310.84,0 -379.34,68.53 -379.34,350.93l0 579.89c0,290.77 71.84,350.93 379.34,350.93 312.49,0 377.65,-51.8 377.65,-350.93l0 -579.89c0,-282.4 -71.84,-350.93 -377.65,-350.93zm0 220.61c61.82,0 76.87,20.03 76.87,90.22l0 661.77c0,70.19 -15.05,88.57 -76.87,88.57 -61.83,0 -78.55,-18.38 -78.55,-88.57l0 -661.77c0,-71.84 16.72,-90.22 78.55,-90.22zm907.41 -220.61c-310.83,0 -379.34,68.53 -379.34,350.93l0 579.89c0,290.77 71.85,350.93 379.34,350.93 312.49,0 377.66,-51.8 377.66,-350.93l0 -579.89c0,-282.4 -71.85,-350.93 -377.66,-350.93zm0 220.61c61.83,0 76.87,20.03 76.87,90.22l0 661.77c0,70.19 -15.04,88.57 -76.87,88.57 -61.82,0 -78.55,-18.38 -78.55,-88.57l0 -661.77c0,-71.84 16.73,-90.22 78.55,-90.22zm544.78 -205.57l0 434.51c0,228.92 100.27,300.79 272.38,300.79 50.15,0 122,-6.68 170.46,-16.7l0 533.07 292.46 0 0 -1251.67 -292.46 0 0 494.65c-20.06,8.36 -40.1,11.7 -76.86,11.7 -51.81,0 -73.53,-30.08 -73.53,-147.05l0 -359.3 -292.45 0zm919.11 0l0 1251.67 347.6 0 220.58 -808.82 -23.4 808.82 265.71 0 0 -1251.67 -340.89 0 -225.61 830.55 21.72 -830.55 -265.71 0zm1687.82 422.81l0 -86.92c0,-265.7 -48.47,-350.93 -332.56,-350.93 -310.83,0 -377.65,66.84 -377.65,350.93l0 579.89c0,290.77 75.18,350.93 377.65,350.93 275.73,0 332.56,-68.53 332.56,-350.93l0 -130.36 -265.71 0 0 172.14c0,70.19 -15.04,86.89 -73.53,86.89 -58.48,0 -70.19,-16.7 -70.19,-86.89l0 -661.77c0,-70.19 11.71,-86.88 70.19,-86.88 58.49,0 73.53,16.69 73.53,86.88l0 127.02 265.71 0zm75.18 -422.81l0 220.61 197.2 0 0 1031.06 292.46 0 0 -1031.06 197.17 0 0 -220.61 -686.83 0zm1087.92 0l-292.45 0 0 1251.67 292.45 0 0 -569.86 222.27 569.86 302.47 0 -277.41 -663.43 238.96 -588.24 -297.45 0 -188.84 539.78 0 -539.78zm738.64 0l-187.16 1251.67 292.43 0 33.42 -305.81 185.5 0 33.43 305.81 299.13 0 -192.18 -1251.67 -464.57 0zm165.44 735.3l68.53 -589.9 63.48 589.9 -132.01 0zm1039.45 516.37l407.77 0c257.34,0 357.62,-40.1 357.62,-260.68l0 -142.06c0,-162.1 -70.19,-242.3 -212.25,-248.98 142.06,-25.09 202.2,-90.26 202.2,-228.95l0 -110.29c0,-220.61 -103.61,-260.71 -360.96,-260.71l-394.38 0 0 1251.67zm292.45 -546.46l88.57 0c66.85,0 91.91,16.73 91.91,90.26l0 148.71c0,73.52 -25.06,86.91 -91.91,86.91l-88.57 0 0 -325.88zm0 -484.6l81.89 0c66.82,0 88.57,15.01 88.57,88.54l0 113.66c0,75.18 -21.75,90.22 -88.57,90.22l-81.89 0 0 -292.42zm1432.16 -235.65c-310.84,0 -379.34,68.53 -379.34,350.93l0 579.89c0,290.77 71.84,350.93 379.34,350.93 312.49,0 377.65,-51.8 377.65,-350.93l0 -579.89c0,-282.4 -71.84,-350.93 -377.65,-350.93zm0 220.61c61.82,0 76.86,20.03 76.86,90.22l0 661.77c0,70.19 -15.04,88.57 -76.86,88.57 -61.83,0 -78.56,-18.38 -78.56,-88.57l0 -661.77c0,-71.84 16.73,-90.22 78.56,-90.22zm997.63 15.04l0 810.48 -193.83 0c53.46,-125.33 71.84,-192.18 71.84,-416.1l0 -394.38 121.99 0zm-386.01 -220.61l0 578.23c0,245.64 -18.38,315.83 -75.21,452.86l-63.48 0 0 469.59 264.02 0 0 -249.01 369.32 0 0 249.01 264.02 0 0 -469.59 -80.2 0 0 -1031.09 -678.47 0zm870.65 0l0 1251.67 347.6 0 220.58 -808.82 -23.41 808.82 265.71 0 0 -1251.67 -340.89 0 -225.6 830.55 21.72 -830.55 -265.71 0zm1286.75 0l-292.45 0 0 1251.67 292.45 0 0 -548.11 150.4 0 0 548.11 292.45 0 0 -1251.67 -292.45 0 0 482.95 -150.4 0 0 -482.95zm1348.61 0l-292.46 0 0 1251.67 292.46 0 0 -569.86 222.26 569.86 302.47 0 -277.41 -663.43 238.97 -588.24 -297.45 0 -188.84 539.78 0 -539.78zm745.32 0l0 817.19c0,115.31 -20.04,172.11 -101.93,172.11 -40.11,0 -65.17,-1.65 -90.26,-11.7l0 270.73c45.13,10.02 86.92,15.04 152.08,15.04 228.95,0 332.56,-172.14 332.56,-446.18l0 -596.58 152.08 0 0 1031.06 292.42 0 0 -1251.67 -736.95 0zm920.8 0l0 1251.67 347.6 0 220.58 -808.82 -23.41 808.82 265.71 0 0 -1251.67 -340.89 0 -225.61 830.55 21.72 -830.55 -265.7 0zm1286.75 0l-292.45 0 0 1251.67 292.45 0 0 -569.86 222.27 569.86 302.47 0 -277.41 -663.43 238.96 -588.24 -297.45 0 -188.84 539.78 0 -539.78zm641.71 1251.67l257.37 0 0 -257.34 -257.37 0 0 257.34zm0 -1251.67l0 858.95 257.37 0 0 -858.95 -257.37 0z"/>
   <path class="fil1" d="M16198.66 3375.68l1068.69 0 0 -3310.16 -1068.69 0 0 3310.16zm3655.35 0l-1286.23 -1399.74c-38.6,-42.58 -68.57,-82.74 -88.25,-120.58 -19.72,-37.84 -33.13,-72.52 -39.43,-104.02 -7.08,-31.53 -10.26,-59.15 -9.46,-82.78 1.59,-43.35 11.84,-86.69 32.35,-129.25 19.69,-41.78 42.53,-78 66.95,-107.17l1149.12 -1366.62 -1267.31 0 -889.06 1248.39c-20.45,29.15 -38.6,63.83 -54.37,104.85 -15.76,40.96 -27.58,84.31 -36.21,129.25 -8.69,44.91 -13.44,88.25 -13.44,130.01 0,74.11 12.61,147.37 37.84,219.13 25.22,71.69 61.5,137.11 108.77,197.02l1002.5 1281.51 1286.23 0zm-5957.52 0l0 -803.92 -1617.24 0c-33.89,1.62 -70.17,0 -107.21,-3.12 -37.04,-3.95 -69.34,-16.56 -96.15,-39.43 -12.58,-9.43 -22.84,-23.64 -32.3,-43.35 -9.46,-20.45 -14.2,-46.47 -15,-79.56l0 -359.4 1806.46 0 0 -718.78 -1806.46 0 0 -250.66c0,-14.97 0,-31.53 1.62,-51.25 1.56,-19.68 6.28,-38.6 14.15,-58.28 7.13,-19.72 18.95,-37.04 36.27,-51.25 19.72,-16.53 44.11,-28.35 74.08,-36.24 29.15,-7.87 59.91,-11.06 91.45,-11.06l1636.12 0 0 -803.86 -2378.55 0c-40.22,-0.82 -82.77,2.33 -129.3,8.64 -46.47,7.13 -92.97,19.71 -140.27,38.63 -46.47,19.68 -90.65,48.06 -132.4,85.1 -40.2,37.84 -70.96,78.04 -91.41,119.82 -20.51,42.58 -33.92,85.11 -40.99,128.48 -7.1,44.12 -10.26,87.46 -9.46,130.05l0 2269.81c-0.8,52.01 0.76,101.66 5.51,148.96 4.71,47.3 18.15,92.97 39.43,137.15 21.27,44.14 56.72,87.46 106.38,130.04 42.55,33.89 85.9,59.11 130.84,75.64 44.11,16.57 89.05,26.82 133.99,31.53 45.67,4.75 91.41,7.11 137.11,6.31l2383.33 0zm-6279.08 0l0 -2487.35 1182.21 0 0 -822.81 -3433.13 0 0 822.81 1182.2 0 0 2487.35 1068.72 0zm-5678.57 -2274.59c3.15,-8.63 7.07,-18.12 11.82,-29.14 4.74,-11.02 10.25,-20.48 15.76,-28.35 4.75,-8.69 10.26,-12.64 14.97,-13.44 4.75,0.8 10.26,4.75 15,13.44 5.51,7.87 11.02,17.33 15.77,28.35 4.71,11.02 8.63,20.51 11.81,29.14l297.93 837.02 -680.95 0 297.89 -837.02zm-1938.83 2274.59l1125.48 0 260.08 -680.95 1191.67 0 260.05 680.95 1125.48 0 -1224.75 -2946.08c-39.4,-91.41 -85.9,-163.9 -139.51,-218.3 -53.6,-54.37 -113.48,-94.56 -178.1,-121.38 -65.42,-26.02 -135.56,-43.35 -208.87,-51.21 -74.09,-7.9 -150.53,-11.85 -230.15,-11.02 -126.86,0 -233.27,9.43 -319.17,28.34 -85.9,18.13 -156.06,44.94 -211.26,80.39 -55.93,34.69 -100.84,77.24 -135.55,126.89 -35.48,48.89 -65.39,104.82 -90.61,166.29l-1224.79 2946.08z"/>
  </g>
 </g>
</svg>
